# xmcd
# 
# Track frame offsets:
#     183
#     10703
#     26240
#     41593
#     57870
#     72030
#     83510
#     104710
#     156303
#     163630
#     175123
#     192625
#     211215
#     229680
#     244303
#     259145
# 
# Disc length: 3982
# 
# Revision: 0
# Processed by: cddbd v1.5.2PL0 Copyright (c) Steve Scherf et al.
# Submitted via: fre:ac v1.0.17
# 
DISCID=d70f8c10
DTITLE=Alexis Korner - 1961-1972
DYEAR=0
DGENRE=
TTITLE0=Alexis Korner - She Fooled Me
TTITLE1=Hoochie Coochie Man
TTITLE2=Oh Lord Don't Let Them Drop That Atomic Bomb On Me
TTITLE3=I Got A Woman
TTITLE4=Corina Corina
TTITLE5=Everyday I Have The Blues
TTITLE6=Operator
TTITLE7=Rosie
TTITLE8=Polly Put The Kettle On
TTITLE9=I See It
TTITLE10=You Don't Miss Your Water Till Your Well Runs Dry
TTITLE11=Mighty Mighty Spade And Whitey
TTITLE12=Lo And Behold
TTITLE13=Louisiana Blues
TTITLE14=Oo Whee Baby
TTITLE15=Rock Me Baby
EXTD=
EXTT0=
EXTT1=
EXTT2=
EXTT3=
EXTT4=
EXTT5=
EXTT6=
EXTT7=
EXTT8=
EXTT9=
EXTT10=
EXTT11=
EXTT12=
EXTT13=
EXTT14=
EXTT15=
PLAYORDER=
